<mxfile host="app.diagrams.net" agent="Mozilla/5.0 (Windows NT 10.0; Win64; x64) AppleWebKit/537.36 (KHTML, like Gecko) Chrome/136.0.0.0 Safari/537.36" version="27.0.2">
  <diagram name="Page-1" id="DHXdHjUePu7e8bshlJxN">
    <mxGraphModel dx="1733" dy="890" grid="1" gridSize="10" guides="1" tooltips="1" connect="1" arrows="1" fold="1" page="1" pageScale="1" pageWidth="1100" pageHeight="850" math="0" shadow="0">
      <root>
        <mxCell id="0" />
        <mxCell id="1" parent="0" />
        <mxCell id="XMS6jnG_ub9EiYpqz-PM-91" value="" style="rounded=0;whiteSpace=wrap;html=1;fillColor=none;dashed=1;" vertex="1" parent="1">
          <mxGeometry x="40" y="578" width="1000" height="240" as="geometry" />
        </mxCell>
        <mxCell id="XMS6jnG_ub9EiYpqz-PM-16" value="" style="rounded=0;whiteSpace=wrap;html=1;fillColor=none;dashed=1;" vertex="1" parent="1">
          <mxGeometry x="40" y="268" width="1000" height="280" as="geometry" />
        </mxCell>
        <mxCell id="XMS6jnG_ub9EiYpqz-PM-3" value="" style="rounded=0;whiteSpace=wrap;html=1;fillColor=none;dashed=1;" vertex="1" parent="1">
          <mxGeometry x="40" y="60" width="1000" height="180" as="geometry" />
        </mxCell>
        <mxCell id="XMS6jnG_ub9EiYpqz-PM-1" value="&lt;b&gt;&lt;font style=&quot;font-size: 16px;&quot;&gt;3. Delivery Design (CI/CD)&lt;/font&gt;&lt;/b&gt;" style="text;html=1;align=center;verticalAlign=middle;resizable=0;points=[];autosize=1;strokeColor=none;fillColor=none;" vertex="1" parent="1">
          <mxGeometry x="10" y="10" width="220" height="30" as="geometry" />
        </mxCell>
        <mxCell id="XMS6jnG_ub9EiYpqz-PM-2" value="Developer" style="shape=umlActor;verticalLabelPosition=bottom;verticalAlign=top;html=1;outlineConnect=0;" vertex="1" parent="1">
          <mxGeometry x="81" y="130" width="30" height="60" as="geometry" />
        </mxCell>
        <mxCell id="XMS6jnG_ub9EiYpqz-PM-4" value="&lt;span&gt;&lt;font style=&quot;font-size: 16px;&quot;&gt;Old CI Pipeline&lt;/font&gt;&lt;/span&gt;" style="text;html=1;align=center;verticalAlign=middle;resizable=0;points=[];autosize=1;strokeColor=none;fillColor=none;fontStyle=0" vertex="1" parent="1">
          <mxGeometry x="108" y="74" width="130" height="30" as="geometry" />
        </mxCell>
        <mxCell id="XMS6jnG_ub9EiYpqz-PM-5" value="" style="shape=mxgraph.mockup.markup.redX;fillColor=#ff0000;html=1;shadow=0;whiteSpace=wrap;strokeColor=none;" vertex="1" parent="1">
          <mxGeometry x="61" y="70" width="40" height="40" as="geometry" />
        </mxCell>
        <mxCell id="XMS6jnG_ub9EiYpqz-PM-6" value="" style="verticalLabelPosition=bottom;html=1;verticalAlign=top;align=center;strokeColor=none;fillColor=#00BEF2;shape=mxgraph.azure.github_code;pointerEvents=1;" vertex="1" parent="1">
          <mxGeometry x="508" y="130" width="50" height="50" as="geometry" />
        </mxCell>
        <mxCell id="XMS6jnG_ub9EiYpqz-PM-7" style="edgeStyle=orthogonalEdgeStyle;rounded=0;orthogonalLoop=1;jettySize=auto;html=1;entryX=-0.004;entryY=0.584;entryDx=0;entryDy=0;entryPerimeter=0;" edge="1" parent="1" target="XMS6jnG_ub9EiYpqz-PM-6">
          <mxGeometry relative="1" as="geometry">
            <mxPoint x="120" y="159" as="sourcePoint" />
            <mxPoint x="512" y="158" as="targetPoint" />
          </mxGeometry>
        </mxCell>
        <mxCell id="XMS6jnG_ub9EiYpqz-PM-8" value="Pushes/Merges Pull Request" style="edgeLabel;html=1;align=center;verticalAlign=middle;resizable=0;points=[];" vertex="1" connectable="0" parent="XMS6jnG_ub9EiYpqz-PM-7">
          <mxGeometry x="0.0248" relative="1" as="geometry">
            <mxPoint y="-11" as="offset" />
          </mxGeometry>
        </mxCell>
        <mxCell id="XMS6jnG_ub9EiYpqz-PM-9" value="" style="html=1;verticalLabelPosition=bottom;align=center;labelBackgroundColor=#ffffff;verticalAlign=top;strokeWidth=2;strokeColor=#0080F0;shadow=0;dashed=0;shape=mxgraph.ios7.icons.box;" vertex="1" parent="1">
          <mxGeometry x="950" y="137" width="50" height="47" as="geometry" />
        </mxCell>
        <mxCell id="XMS6jnG_ub9EiYpqz-PM-12" value="" style="endArrow=classic;html=1;rounded=0;entryX=0.043;entryY=0.487;entryDx=0;entryDy=0;entryPerimeter=0;exitX=1.005;exitY=0.586;exitDx=0;exitDy=0;exitPerimeter=0;" edge="1" parent="1" source="XMS6jnG_ub9EiYpqz-PM-6" target="XMS6jnG_ub9EiYpqz-PM-9">
          <mxGeometry width="50" height="50" relative="1" as="geometry">
            <mxPoint x="700" y="260" as="sourcePoint" />
            <mxPoint x="750" y="210" as="targetPoint" />
          </mxGeometry>
        </mxCell>
        <mxCell id="XMS6jnG_ub9EiYpqz-PM-13" value="Publishes Artifact" style="edgeLabel;html=1;align=center;verticalAlign=middle;resizable=0;points=[];" vertex="1" connectable="0" parent="XMS6jnG_ub9EiYpqz-PM-12">
          <mxGeometry x="-0.3138" y="1" relative="1" as="geometry">
            <mxPoint x="60" y="11" as="offset" />
          </mxGeometry>
        </mxCell>
        <mxCell id="XMS6jnG_ub9EiYpqz-PM-14" value="Source Control (GIT)" style="text;html=1;align=center;verticalAlign=middle;whiteSpace=wrap;rounded=0;" vertex="1" parent="1">
          <mxGeometry x="503" y="190" width="60" height="30" as="geometry" />
        </mxCell>
        <mxCell id="XMS6jnG_ub9EiYpqz-PM-15" value="JAR/TAR/SCRIPT" style="text;html=1;align=center;verticalAlign=middle;whiteSpace=wrap;rounded=0;" vertex="1" parent="1">
          <mxGeometry x="945" y="186" width="60" height="30" as="geometry" />
        </mxCell>
        <mxCell id="XMS6jnG_ub9EiYpqz-PM-17" value="" style="verticalLabelPosition=bottom;verticalAlign=top;html=1;shape=mxgraph.basic.tick;fillColor=#00CC00;" vertex="1" parent="1">
          <mxGeometry x="60" y="282" width="50" height="40" as="geometry" />
        </mxCell>
        <mxCell id="XMS6jnG_ub9EiYpqz-PM-18" value="&lt;span&gt;&lt;font style=&quot;font-size: 16px;&quot;&gt;New CI Pipeline&lt;/font&gt;&lt;/span&gt;" style="text;html=1;align=center;verticalAlign=middle;resizable=0;points=[];autosize=1;strokeColor=none;fillColor=none;fontStyle=0" vertex="1" parent="1">
          <mxGeometry x="105" y="288" width="140" height="30" as="geometry" />
        </mxCell>
        <mxCell id="XMS6jnG_ub9EiYpqz-PM-19" value="Developer" style="shape=umlActor;verticalLabelPosition=bottom;verticalAlign=top;html=1;outlineConnect=0;" vertex="1" parent="1">
          <mxGeometry x="81" y="348" width="30" height="60" as="geometry" />
        </mxCell>
        <mxCell id="XMS6jnG_ub9EiYpqz-PM-20" style="edgeStyle=orthogonalEdgeStyle;rounded=0;orthogonalLoop=1;jettySize=auto;html=1;" edge="1" parent="1">
          <mxGeometry relative="1" as="geometry">
            <mxPoint x="120" y="388" as="sourcePoint" />
            <mxPoint x="240" y="388" as="targetPoint" />
            <Array as="points">
              <mxPoint x="121" y="388" />
            </Array>
          </mxGeometry>
        </mxCell>
        <mxCell id="XMS6jnG_ub9EiYpqz-PM-21" value="Pull Request" style="edgeLabel;html=1;align=center;verticalAlign=middle;resizable=0;points=[];" vertex="1" connectable="0" parent="XMS6jnG_ub9EiYpqz-PM-20">
          <mxGeometry x="0.0248" relative="1" as="geometry">
            <mxPoint x="-12" y="-10" as="offset" />
          </mxGeometry>
        </mxCell>
        <mxCell id="XMS6jnG_ub9EiYpqz-PM-29" value="" style="group" vertex="1" connectable="0" parent="1">
          <mxGeometry x="240" y="358" width="60" height="60" as="geometry" />
        </mxCell>
        <mxCell id="XMS6jnG_ub9EiYpqz-PM-25" value="" style="html=1;verticalLabelPosition=bottom;align=center;labelBackgroundColor=#ffffff;verticalAlign=top;strokeWidth=2;strokeColor=#0080F0;shadow=0;dashed=0;shape=mxgraph.ios7.icons.settings;" vertex="1" parent="XMS6jnG_ub9EiYpqz-PM-29">
          <mxGeometry x="15" width="30" height="30" as="geometry" />
        </mxCell>
        <mxCell id="XMS6jnG_ub9EiYpqz-PM-28" value="Compile/Lint" style="text;html=1;align=center;verticalAlign=middle;whiteSpace=wrap;rounded=0;" vertex="1" parent="XMS6jnG_ub9EiYpqz-PM-29">
          <mxGeometry y="30" width="60" height="30" as="geometry" />
        </mxCell>
        <mxCell id="XMS6jnG_ub9EiYpqz-PM-30" style="edgeStyle=orthogonalEdgeStyle;rounded=0;orthogonalLoop=1;jettySize=auto;html=1;exitX=1;exitY=0;exitDx=0;exitDy=0;" edge="1" parent="1" source="XMS6jnG_ub9EiYpqz-PM-28">
          <mxGeometry relative="1" as="geometry">
            <mxPoint x="322" y="387.44" as="sourcePoint" />
            <mxPoint x="330" y="388" as="targetPoint" />
            <Array as="points">
              <mxPoint x="323" y="388" />
            </Array>
          </mxGeometry>
        </mxCell>
        <mxCell id="XMS6jnG_ub9EiYpqz-PM-32" value="" style="image;sketch=0;aspect=fixed;html=1;points=[];align=center;fontSize=12;image=img/lib/mscae/Docker.svg;" vertex="1" parent="1">
          <mxGeometry x="480" y="367.5" width="50" height="41" as="geometry" />
        </mxCell>
        <mxCell id="XMS6jnG_ub9EiYpqz-PM-33" style="edgeStyle=orthogonalEdgeStyle;rounded=0;orthogonalLoop=1;jettySize=auto;html=1;exitX=1;exitY=0;exitDx=0;exitDy=0;" edge="1" parent="1">
          <mxGeometry relative="1" as="geometry">
            <mxPoint x="400" y="387.74" as="sourcePoint" />
            <mxPoint x="462" y="387.74" as="targetPoint" />
            <Array as="points">
              <mxPoint x="423" y="387.74" />
            </Array>
          </mxGeometry>
        </mxCell>
        <mxCell id="XMS6jnG_ub9EiYpqz-PM-37" style="edgeStyle=orthogonalEdgeStyle;rounded=0;orthogonalLoop=1;jettySize=auto;html=1;exitX=1;exitY=0;exitDx=0;exitDy=0;" edge="1" parent="1">
          <mxGeometry relative="1" as="geometry">
            <mxPoint x="540" y="389.03000000000003" as="sourcePoint" />
            <mxPoint x="602" y="389.03000000000003" as="targetPoint" />
            <Array as="points">
              <mxPoint x="563" y="389.03000000000003" />
            </Array>
          </mxGeometry>
        </mxCell>
        <mxCell id="XMS6jnG_ub9EiYpqz-PM-38" value="" style="group" vertex="1" connectable="0" parent="1">
          <mxGeometry x="600" y="363" width="60" height="55.5" as="geometry" />
        </mxCell>
        <mxCell id="XMS6jnG_ub9EiYpqz-PM-34" value="" style="image;aspect=fixed;html=1;points=[];align=center;fontSize=12;image=img/lib/azure2/general/Bug.svg;" vertex="1" parent="XMS6jnG_ub9EiYpqz-PM-38">
          <mxGeometry x="15.940000000000055" width="28.12" height="30.5" as="geometry" />
        </mxCell>
        <mxCell id="XMS6jnG_ub9EiYpqz-PM-35" value="SAST" style="text;html=1;align=center;verticalAlign=middle;whiteSpace=wrap;rounded=0;" vertex="1" parent="XMS6jnG_ub9EiYpqz-PM-38">
          <mxGeometry y="25.5" width="60" height="30" as="geometry" />
        </mxCell>
        <mxCell id="XMS6jnG_ub9EiYpqz-PM-39" value="Developer" style="shape=umlActor;verticalLabelPosition=bottom;verticalAlign=top;html=1;outlineConnect=0;" vertex="1" parent="1">
          <mxGeometry x="80" y="458" width="30" height="60" as="geometry" />
        </mxCell>
        <mxCell id="XMS6jnG_ub9EiYpqz-PM-40" style="edgeStyle=orthogonalEdgeStyle;rounded=0;orthogonalLoop=1;jettySize=auto;html=1;" edge="1" parent="1">
          <mxGeometry relative="1" as="geometry">
            <mxPoint x="119" y="498" as="sourcePoint" />
            <mxPoint x="239" y="498" as="targetPoint" />
            <Array as="points">
              <mxPoint x="120" y="498" />
            </Array>
          </mxGeometry>
        </mxCell>
        <mxCell id="XMS6jnG_ub9EiYpqz-PM-41" value="Approves/Merges&lt;div&gt;Pull Request&lt;/div&gt;" style="edgeLabel;html=1;align=center;verticalAlign=middle;resizable=0;points=[];" vertex="1" connectable="0" parent="XMS6jnG_ub9EiYpqz-PM-40">
          <mxGeometry x="0.0248" relative="1" as="geometry">
            <mxPoint x="-5" y="-20" as="offset" />
          </mxGeometry>
        </mxCell>
        <mxCell id="XMS6jnG_ub9EiYpqz-PM-42" value="" style="group" vertex="1" connectable="0" parent="1">
          <mxGeometry x="239" y="468" width="60" height="60" as="geometry" />
        </mxCell>
        <mxCell id="XMS6jnG_ub9EiYpqz-PM-43" value="" style="html=1;verticalLabelPosition=bottom;align=center;labelBackgroundColor=#ffffff;verticalAlign=top;strokeWidth=2;strokeColor=#0080F0;shadow=0;dashed=0;shape=mxgraph.ios7.icons.settings;" vertex="1" parent="XMS6jnG_ub9EiYpqz-PM-42">
          <mxGeometry x="15" width="30" height="30" as="geometry" />
        </mxCell>
        <mxCell id="XMS6jnG_ub9EiYpqz-PM-44" value="Compile/Lint" style="text;html=1;align=center;verticalAlign=middle;whiteSpace=wrap;rounded=0;" vertex="1" parent="XMS6jnG_ub9EiYpqz-PM-42">
          <mxGeometry y="30" width="60" height="30" as="geometry" />
        </mxCell>
        <mxCell id="XMS6jnG_ub9EiYpqz-PM-45" style="edgeStyle=orthogonalEdgeStyle;rounded=0;orthogonalLoop=1;jettySize=auto;html=1;exitX=1;exitY=0;exitDx=0;exitDy=0;" edge="1" parent="1" source="XMS6jnG_ub9EiYpqz-PM-44">
          <mxGeometry relative="1" as="geometry">
            <mxPoint x="321" y="497.44" as="sourcePoint" />
            <mxPoint x="330" y="498" as="targetPoint" />
            <Array as="points">
              <mxPoint x="322" y="498" />
            </Array>
          </mxGeometry>
        </mxCell>
        <mxCell id="XMS6jnG_ub9EiYpqz-PM-48" value="" style="image;sketch=0;aspect=fixed;html=1;points=[];align=center;fontSize=12;image=img/lib/mscae/Docker.svg;" vertex="1" parent="1">
          <mxGeometry x="440" y="477.5" width="50" height="41" as="geometry" />
        </mxCell>
        <mxCell id="XMS6jnG_ub9EiYpqz-PM-49" style="edgeStyle=orthogonalEdgeStyle;rounded=0;orthogonalLoop=1;jettySize=auto;html=1;exitX=1;exitY=0;exitDx=0;exitDy=0;" edge="1" parent="1">
          <mxGeometry relative="1" as="geometry">
            <mxPoint x="400" y="497.90000000000003" as="sourcePoint" />
            <mxPoint x="431" y="497.98" as="targetPoint" />
            <Array as="points">
              <mxPoint x="421" y="497.98" />
              <mxPoint x="421" y="497.98" />
            </Array>
          </mxGeometry>
        </mxCell>
        <mxCell id="XMS6jnG_ub9EiYpqz-PM-50" style="edgeStyle=orthogonalEdgeStyle;rounded=0;orthogonalLoop=1;jettySize=auto;html=1;exitX=1;exitY=0;exitDx=0;exitDy=0;" edge="1" parent="1">
          <mxGeometry relative="1" as="geometry">
            <mxPoint x="501" y="496.02000000000004" as="sourcePoint" />
            <mxPoint x="540" y="496" as="targetPoint" />
            <Array as="points">
              <mxPoint x="524" y="496.02000000000004" />
            </Array>
          </mxGeometry>
        </mxCell>
        <mxCell id="XMS6jnG_ub9EiYpqz-PM-54" value="Developer" style="shape=umlActor;verticalLabelPosition=bottom;verticalAlign=top;html=1;outlineConnect=0;" vertex="1" parent="1">
          <mxGeometry x="80" y="680" width="30" height="60" as="geometry" />
        </mxCell>
        <mxCell id="XMS6jnG_ub9EiYpqz-PM-55" style="edgeStyle=orthogonalEdgeStyle;rounded=0;orthogonalLoop=1;jettySize=auto;html=1;" edge="1" parent="1">
          <mxGeometry relative="1" as="geometry">
            <mxPoint x="125" y="720" as="sourcePoint" />
            <mxPoint x="245" y="720" as="targetPoint" />
            <Array as="points">
              <mxPoint x="126" y="720" />
            </Array>
          </mxGeometry>
        </mxCell>
        <mxCell id="XMS6jnG_ub9EiYpqz-PM-56" value="Tags Main Branch" style="edgeLabel;html=1;align=center;verticalAlign=middle;resizable=0;points=[];" vertex="1" connectable="0" parent="XMS6jnG_ub9EiYpqz-PM-55">
          <mxGeometry x="0.0248" relative="1" as="geometry">
            <mxPoint x="-7" y="-10" as="offset" />
          </mxGeometry>
        </mxCell>
        <mxCell id="XMS6jnG_ub9EiYpqz-PM-70" style="edgeStyle=orthogonalEdgeStyle;rounded=0;orthogonalLoop=1;jettySize=auto;html=1;exitX=1;exitY=0;exitDx=0;exitDy=0;" edge="1" parent="1">
          <mxGeometry relative="1" as="geometry">
            <mxPoint x="600" y="496.00999999999993" as="sourcePoint" />
            <mxPoint x="650" y="496.2" as="targetPoint" />
            <Array as="points">
              <mxPoint x="623" y="496.00999999999993" />
            </Array>
          </mxGeometry>
        </mxCell>
        <mxCell id="XMS6jnG_ub9EiYpqz-PM-73" style="edgeStyle=orthogonalEdgeStyle;rounded=0;orthogonalLoop=1;jettySize=auto;html=1;exitX=1;exitY=0;exitDx=0;exitDy=0;" edge="1" parent="1">
          <mxGeometry relative="1" as="geometry">
            <mxPoint x="735" y="495.68999999999994" as="sourcePoint" />
            <mxPoint x="771" y="495.88" as="targetPoint" />
            <Array as="points">
              <mxPoint x="758" y="495.68999999999994" />
            </Array>
          </mxGeometry>
        </mxCell>
        <mxCell id="XMS6jnG_ub9EiYpqz-PM-78" value="" style="group" vertex="1" connectable="0" parent="1">
          <mxGeometry x="964" y="473" width="60" height="55.5" as="geometry" />
        </mxCell>
        <mxCell id="XMS6jnG_ub9EiYpqz-PM-79" value="" style="image;aspect=fixed;html=1;points=[];align=center;fontSize=12;image=img/lib/azure2/general/Bug.svg;" vertex="1" parent="XMS6jnG_ub9EiYpqz-PM-78">
          <mxGeometry x="15.940000000000055" width="28.12" height="30.5" as="geometry" />
        </mxCell>
        <mxCell id="XMS6jnG_ub9EiYpqz-PM-80" value="DAST" style="text;html=1;align=center;verticalAlign=middle;whiteSpace=wrap;rounded=0;" vertex="1" parent="XMS6jnG_ub9EiYpqz-PM-78">
          <mxGeometry y="25.5" width="60" height="30" as="geometry" />
        </mxCell>
        <mxCell id="XMS6jnG_ub9EiYpqz-PM-81" style="edgeStyle=orthogonalEdgeStyle;rounded=0;orthogonalLoop=1;jettySize=auto;html=1;exitX=1;exitY=0;exitDx=0;exitDy=0;" edge="1" parent="1">
          <mxGeometry relative="1" as="geometry">
            <mxPoint x="845" y="497" as="sourcePoint" />
            <mxPoint x="881" y="497.19000000000005" as="targetPoint" />
            <Array as="points">
              <mxPoint x="868" y="497" />
            </Array>
          </mxGeometry>
        </mxCell>
        <mxCell id="XMS6jnG_ub9EiYpqz-PM-82" value="" style="group" vertex="1" connectable="0" parent="1">
          <mxGeometry x="877.1" y="468" width="60" height="68" as="geometry" />
        </mxCell>
        <mxCell id="XMS6jnG_ub9EiYpqz-PM-75" value="" style="image;sketch=0;aspect=fixed;html=1;points=[];align=center;fontSize=12;image=img/lib/mscae/Azure_Test_Plans.svg;" vertex="1" parent="XMS6jnG_ub9EiYpqz-PM-82">
          <mxGeometry x="12.899999999999977" width="34.2" height="38" as="geometry" />
        </mxCell>
        <mxCell id="XMS6jnG_ub9EiYpqz-PM-76" value="Smoke Test" style="text;html=1;align=center;verticalAlign=middle;whiteSpace=wrap;rounded=0;" vertex="1" parent="XMS6jnG_ub9EiYpqz-PM-82">
          <mxGeometry y="38" width="60" height="30" as="geometry" />
        </mxCell>
        <mxCell id="XMS6jnG_ub9EiYpqz-PM-83" value="" style="group" vertex="1" connectable="0" parent="1">
          <mxGeometry x="330" y="468" width="60" height="63" as="geometry" />
        </mxCell>
        <mxCell id="XMS6jnG_ub9EiYpqz-PM-46" value="" style="image;sketch=0;aspect=fixed;html=1;points=[];align=center;fontSize=12;image=img/lib/mscae/Azure_Test_Plans.svg;" vertex="1" parent="XMS6jnG_ub9EiYpqz-PM-83">
          <mxGeometry x="12.5" width="34.2" height="38" as="geometry" />
        </mxCell>
        <mxCell id="XMS6jnG_ub9EiYpqz-PM-47" value="Unit Test" style="text;html=1;align=center;verticalAlign=middle;whiteSpace=wrap;rounded=0;" vertex="1" parent="XMS6jnG_ub9EiYpqz-PM-83">
          <mxGeometry y="33" width="60" height="30" as="geometry" />
        </mxCell>
        <mxCell id="XMS6jnG_ub9EiYpqz-PM-84" style="edgeStyle=orthogonalEdgeStyle;rounded=0;orthogonalLoop=1;jettySize=auto;html=1;exitX=1;exitY=0;exitDx=0;exitDy=0;" edge="1" parent="1">
          <mxGeometry relative="1" as="geometry">
            <mxPoint x="933.1" y="501.36" as="sourcePoint" />
            <mxPoint x="969.1" y="501.55000000000007" as="targetPoint" />
            <Array as="points">
              <mxPoint x="956.1" y="501.36" />
            </Array>
          </mxGeometry>
        </mxCell>
        <mxCell id="XMS6jnG_ub9EiYpqz-PM-85" value="" style="group" vertex="1" connectable="0" parent="1">
          <mxGeometry x="650" y="466.5" width="85" height="63" as="geometry" />
        </mxCell>
        <mxCell id="XMS6jnG_ub9EiYpqz-PM-69" value="" style="sketch=0;points=[[0,0,0],[0.25,0,0],[0.5,0,0],[0.75,0,0],[1,0,0],[0,1,0],[0.25,1,0],[0.5,1,0],[0.75,1,0],[1,1,0],[0,0.25,0],[0,0.5,0],[0,0.75,0],[1,0.25,0],[1,0.5,0],[1,0.75,0]];outlineConnect=0;fontColor=#232F3E;fillColor=#ED7100;strokeColor=#ffffff;dashed=0;verticalLabelPosition=bottom;verticalAlign=top;align=center;html=1;fontSize=12;fontStyle=0;aspect=fixed;shape=mxgraph.aws4.resourceIcon;resIcon=mxgraph.aws4.ecr;" vertex="1" parent="XMS6jnG_ub9EiYpqz-PM-85">
          <mxGeometry x="25.75" width="33" height="33" as="geometry" />
        </mxCell>
        <mxCell id="XMS6jnG_ub9EiYpqz-PM-71" value="Docker Publish&lt;br&gt;(Pre-Release)" style="text;html=1;align=center;verticalAlign=middle;whiteSpace=wrap;rounded=0;" vertex="1" parent="XMS6jnG_ub9EiYpqz-PM-85">
          <mxGeometry y="33" width="85" height="30" as="geometry" />
        </mxCell>
        <mxCell id="XMS6jnG_ub9EiYpqz-PM-86" value="" style="group" vertex="1" connectable="0" parent="1">
          <mxGeometry x="770" y="468" width="85" height="60.5" as="geometry" />
        </mxCell>
        <mxCell id="XMS6jnG_ub9EiYpqz-PM-72" value="" style="sketch=0;points=[[0,0,0],[0.25,0,0],[0.5,0,0],[0.75,0,0],[1,0,0],[0,1,0],[0.25,1,0],[0.5,1,0],[0.75,1,0],[1,1,0],[0,0.25,0],[0,0.5,0],[0,0.75,0],[1,0.25,0],[1,0.5,0],[1,0.75,0]];outlineConnect=0;fontColor=#232F3E;fillColor=#ED7100;strokeColor=#ffffff;dashed=0;verticalLabelPosition=bottom;verticalAlign=top;align=center;html=1;fontSize=12;fontStyle=0;aspect=fixed;shape=mxgraph.aws4.resourceIcon;resIcon=mxgraph.aws4.eks;" vertex="1" parent="XMS6jnG_ub9EiYpqz-PM-86">
          <mxGeometry x="25.379999999999995" width="31.25" height="31.25" as="geometry" />
        </mxCell>
        <mxCell id="XMS6jnG_ub9EiYpqz-PM-74" value="K8s Deploy (CI)" style="text;html=1;align=center;verticalAlign=middle;whiteSpace=wrap;rounded=0;" vertex="1" parent="XMS6jnG_ub9EiYpqz-PM-86">
          <mxGeometry y="30.5" width="85" height="30" as="geometry" />
        </mxCell>
        <mxCell id="XMS6jnG_ub9EiYpqz-PM-87" value="" style="group" vertex="1" connectable="0" parent="1">
          <mxGeometry x="330" y="358" width="60" height="63" as="geometry" />
        </mxCell>
        <mxCell id="XMS6jnG_ub9EiYpqz-PM-22" value="" style="image;sketch=0;aspect=fixed;html=1;points=[];align=center;fontSize=12;image=img/lib/mscae/Azure_Test_Plans.svg;" vertex="1" parent="XMS6jnG_ub9EiYpqz-PM-87">
          <mxGeometry x="12.5" width="34.2" height="38" as="geometry" />
        </mxCell>
        <mxCell id="XMS6jnG_ub9EiYpqz-PM-23" value="Unit Test" style="text;html=1;align=center;verticalAlign=middle;whiteSpace=wrap;rounded=0;" vertex="1" parent="XMS6jnG_ub9EiYpqz-PM-87">
          <mxGeometry y="33" width="60" height="30" as="geometry" />
        </mxCell>
        <mxCell id="XMS6jnG_ub9EiYpqz-PM-88" value="" style="verticalLabelPosition=bottom;verticalAlign=top;html=1;shape=mxgraph.basic.tick;fillColor=#00CC00;" vertex="1" parent="1">
          <mxGeometry x="53" y="590" width="50" height="40" as="geometry" />
        </mxCell>
        <mxCell id="XMS6jnG_ub9EiYpqz-PM-89" value="&lt;span&gt;&lt;font style=&quot;font-size: 16px;&quot;&gt;New CD Pipeline&lt;/font&gt;&lt;/span&gt;" style="text;html=1;align=center;verticalAlign=middle;resizable=0;points=[];autosize=1;strokeColor=none;fillColor=none;fontStyle=0" vertex="1" parent="1">
          <mxGeometry x="110" y="600" width="140" height="30" as="geometry" />
        </mxCell>
        <mxCell id="XMS6jnG_ub9EiYpqz-PM-92" value="" style="group" vertex="1" connectable="0" parent="1">
          <mxGeometry x="246" y="680" width="85" height="63" as="geometry" />
        </mxCell>
        <mxCell id="XMS6jnG_ub9EiYpqz-PM-93" value="" style="sketch=0;points=[[0,0,0],[0.25,0,0],[0.5,0,0],[0.75,0,0],[1,0,0],[0,1,0],[0.25,1,0],[0.5,1,0],[0.75,1,0],[1,1,0],[0,0.25,0],[0,0.5,0],[0,0.75,0],[1,0.25,0],[1,0.5,0],[1,0.75,0]];outlineConnect=0;fontColor=#232F3E;fillColor=#ED7100;strokeColor=#ffffff;dashed=0;verticalLabelPosition=bottom;verticalAlign=top;align=center;html=1;fontSize=12;fontStyle=0;aspect=fixed;shape=mxgraph.aws4.resourceIcon;resIcon=mxgraph.aws4.ecr;" vertex="1" parent="XMS6jnG_ub9EiYpqz-PM-92">
          <mxGeometry x="25.75" width="33" height="33" as="geometry" />
        </mxCell>
        <mxCell id="XMS6jnG_ub9EiYpqz-PM-94" value="Docker Tag&amp;nbsp;&lt;div&gt;(Release)&lt;/div&gt;" style="text;html=1;align=center;verticalAlign=middle;whiteSpace=wrap;rounded=0;" vertex="1" parent="XMS6jnG_ub9EiYpqz-PM-92">
          <mxGeometry y="33" width="85" height="30" as="geometry" />
        </mxCell>
        <mxCell id="XMS6jnG_ub9EiYpqz-PM-95" value="" style="group" vertex="1" connectable="0" parent="1">
          <mxGeometry x="542" y="476.25" width="60" height="55.5" as="geometry" />
        </mxCell>
        <mxCell id="XMS6jnG_ub9EiYpqz-PM-96" value="" style="image;aspect=fixed;html=1;points=[];align=center;fontSize=12;image=img/lib/azure2/general/Bug.svg;" vertex="1" parent="XMS6jnG_ub9EiYpqz-PM-95">
          <mxGeometry x="15.940000000000055" width="28.12" height="30.5" as="geometry" />
        </mxCell>
        <mxCell id="XMS6jnG_ub9EiYpqz-PM-97" value="SAST" style="text;html=1;align=center;verticalAlign=middle;whiteSpace=wrap;rounded=0;" vertex="1" parent="XMS6jnG_ub9EiYpqz-PM-95">
          <mxGeometry y="25.5" width="60" height="30" as="geometry" />
        </mxCell>
        <mxCell id="XMS6jnG_ub9EiYpqz-PM-98" value="" style="shape=image;html=1;verticalAlign=top;verticalLabelPosition=bottom;labelBackgroundColor=#ffffff;imageAspect=0;aspect=fixed;image=https://cdn3.iconfinder.com/data/icons/travelling-icon-set/800/helm-128.png" vertex="1" parent="1">
          <mxGeometry x="391" y="670.5" width="38" height="38" as="geometry" />
        </mxCell>
        <mxCell id="XMS6jnG_ub9EiYpqz-PM-99" style="edgeStyle=orthogonalEdgeStyle;rounded=0;orthogonalLoop=1;jettySize=auto;html=1;exitX=1;exitY=0;exitDx=0;exitDy=0;" edge="1" parent="1">
          <mxGeometry relative="1" as="geometry">
            <mxPoint x="335" y="720.0300000000001" as="sourcePoint" />
            <mxPoint x="374" y="720.0100000000001" as="targetPoint" />
            <Array as="points">
              <mxPoint x="358" y="720.0300000000001" />
            </Array>
          </mxGeometry>
        </mxCell>
        <mxCell id="XMS6jnG_ub9EiYpqz-PM-100" value="GitOps Manifest Update" style="text;html=1;align=center;verticalAlign=middle;whiteSpace=wrap;rounded=0;" vertex="1" parent="1">
          <mxGeometry x="380" y="719.5" width="60" height="30" as="geometry" />
        </mxCell>
        <mxCell id="XMS6jnG_ub9EiYpqz-PM-101" value="" style="group" vertex="1" connectable="0" parent="1">
          <mxGeometry x="620" y="590" width="85" height="60.5" as="geometry" />
        </mxCell>
        <mxCell id="XMS6jnG_ub9EiYpqz-PM-102" value="" style="sketch=0;points=[[0,0,0],[0.25,0,0],[0.5,0,0],[0.75,0,0],[1,0,0],[0,1,0],[0.25,1,0],[0.5,1,0],[0.75,1,0],[1,1,0],[0,0.25,0],[0,0.5,0],[0,0.75,0],[1,0.25,0],[1,0.5,0],[1,0.75,0]];outlineConnect=0;fontColor=#232F3E;fillColor=#ED7100;strokeColor=#ffffff;dashed=0;verticalLabelPosition=bottom;verticalAlign=top;align=center;html=1;fontSize=12;fontStyle=0;aspect=fixed;shape=mxgraph.aws4.resourceIcon;resIcon=mxgraph.aws4.eks;" vertex="1" parent="XMS6jnG_ub9EiYpqz-PM-101">
          <mxGeometry x="25.379999999999995" width="31.25" height="31.25" as="geometry" />
        </mxCell>
        <mxCell id="XMS6jnG_ub9EiYpqz-PM-103" value="K8s Deploy" style="text;html=1;align=center;verticalAlign=middle;whiteSpace=wrap;rounded=0;" vertex="1" parent="XMS6jnG_ub9EiYpqz-PM-101">
          <mxGeometry y="30.5" width="85" height="30" as="geometry" />
        </mxCell>
        <mxCell id="XMS6jnG_ub9EiYpqz-PM-106" value="" style="group" vertex="1" connectable="0" parent="1">
          <mxGeometry x="622.5" y="652.5" width="80" height="70" as="geometry" />
        </mxCell>
        <mxCell id="XMS6jnG_ub9EiYpqz-PM-104" value="" style="image;aspect=fixed;html=1;points=[];align=center;fontSize=12;image=img/lib/azure2/other/AKS_Automatic.svg;" vertex="1" parent="XMS6jnG_ub9EiYpqz-PM-106">
          <mxGeometry x="18" width="40" height="40" as="geometry" />
        </mxCell>
        <mxCell id="XMS6jnG_ub9EiYpqz-PM-105" value="K8s Deploy" style="text;html=1;align=center;verticalAlign=middle;whiteSpace=wrap;rounded=0;" vertex="1" parent="XMS6jnG_ub9EiYpqz-PM-106">
          <mxGeometry y="40" width="80" height="30" as="geometry" />
        </mxCell>
        <mxCell id="XMS6jnG_ub9EiYpqz-PM-111" value="" style="group" vertex="1" connectable="0" parent="1">
          <mxGeometry x="622.5" y="727" width="80" height="75" as="geometry" />
        </mxCell>
        <mxCell id="XMS6jnG_ub9EiYpqz-PM-110" value="" style="editableCssRules=.*;html=1;shape=image;verticalLabelPosition=bottom;labelBackgroundColor=#ffffff;verticalAlign=top;aspect=fixed;imageAspect=0;image=data:image/svg+xml,PHN2ZyB4bWxucz0iaHR0cDovL3d3dy53My5vcmcvMjAwMC9zdmciIHhtbG5zOnY9Imh0dHBzOi8vdmVjdGEuaW8vbmFubyIgd2lkdGg9IjQwMi4zNDMyMDA2ODM1OTM3NSIgaGVpZ2h0PSI0MTYuMDAyNTMyOTU4OTg0NCIgdmlld0JveD0iMCAwLjAwMDQ5OTk2Mzc2MDM3NTk3NjYgNDAyLjM0MzIwMDY4MzU5Mzc1IDQxNi4wMDI1MzI5NTg5ODQ0Ij4mI3hhOwk8c3R5bGUgdHlwZT0idGV4dC9jc3MiPiYjeGE7CS5zdDB7ZmlsbDojNDI4NWY0O30mI3hhOwkuc3Qxe2ZpbGw6IzY2OWRmNjt9JiN4YTsJLnN0MntmaWxsOiNhZWNiZmE7fSYjeGE7CTwvc3R5bGU+JiN4YTsJPHBhdGggY2xhc3M9InN0MiIgZD0iTTM2Ni4xNyA5Mi4wMDNjLTE5LjA1IDAtMzYgMTYuODItMzYgMzUuNzYgMCAxMi42MiA4LjQ2IDI1LjI0IDE5LjA1IDMxLjU1djE0Ny4zbC0xMTAuMDUgNjUuMjEgMTYuOTMgMjcuMzUgMTE4LjUxLTY5LjQyYzQuMjQtMi4xIDguNDctOC40MSA4LjQ3LTE0Ljczdi0xNTUuNjdjMTIuNzEtNi4zNSAxOS4wOS0xOC45MyAxOS4wOS0zMS41NSAyLjA4LTE4Ljk0LTE0Ljg1LTM1LjgtMzYtMzUuOHptLTM4LjExLTIzLjFMMjA5LjU1IDEuNTgzYy00LjI0LTIuMTEtMTAuNTktMi4xMS0xNi45MyAwTDU3LjE3IDc5LjQxM0EzNiAzNiAwIDAgMCAzNiA3My4xMDNjLTE5IDAtMzYgMTYuODMtMzYgMzUuNzZzMTYuOTMgMzUuNzcgMzYgMzUuNzcgMzYtMTYuODMgMzYtMzUuNzdsMTI5LjEtNzMuNjIgMTEwIDYzLjExem0tMTQzLjg5IDI3Ny42OHEtOS41MyAwLTE5IDYuMzFsLTExMC02My4xMXYtMTI2LjIyaC0zNHYxMzQuNjNjMCA2LjMyIDQuMjMgMTIuNjMgOC40NiAxNC43M2wxMTguNTQgNjUuMjF2Mi4xMWMwIDE4LjkzIDE2LjkzIDM1Ljc2IDM2IDM1Ljc2czM2LTE2LjgzIDM2LTM1Ljc2LTE3LTMzLjY2LTM2LTMzLjY2eiIvPiYjeGE7CTxwYXRoIGNsYXNzPSJzdDEiIGQ9Ik05Ny4zOCAxMzYuMjEzbDEwNS44MiA1OC45MSAxMDMuNy01OC45MS0xMDMuNy02MXptLTYuMzUgNjcuMzJsMTEyLjE3IDYzLjExdi01MC40OWwtMTEyLjE3LTY1LjIxem0wIDYzLjExbDExMi4xNyA2NS4yMXYtNDQuMTdsLTExMi4xNy02NS4yMnoiLz4mI3hhOwk8cGF0aCBjbGFzcz0ic3QwIiBkPSJNMjAzLjE3IDIxNi4xMjN2NTAuNTZsMTEyLjE2LTY1LjI5di01MC4zOXptOTItMjBhOC4xNiA4LjE2IDAgMSAxIDguMTYtOC4xNiA4LjE5IDguMTkgMCAwIDEtOC4xNiA4LjE2em0tOTIgOTEuNTJ2NDQuMTZsMTEyLjE2LTY1LjEydi00NC4xNnptOTItMjIuODhhOC4xNiA4LjE2IDAgMSAxIDguMTYtOC4xNiA4LjE5IDguMTkgMCAwIDEtOC4xNiA4LjE2eiIvPiYjeGE7PC9zdmc+;" vertex="1" parent="XMS6jnG_ub9EiYpqz-PM-111">
          <mxGeometry x="18.629999999999995" width="42.75" height="45" as="geometry" />
        </mxCell>
        <mxCell id="XMS6jnG_ub9EiYpqz-PM-109" value="K8s Deploy" style="text;html=1;align=center;verticalAlign=middle;whiteSpace=wrap;rounded=0;" vertex="1" parent="XMS6jnG_ub9EiYpqz-PM-111">
          <mxGeometry y="45" width="80" height="30" as="geometry" />
        </mxCell>
        <mxCell id="XMS6jnG_ub9EiYpqz-PM-113" style="edgeStyle=orthogonalEdgeStyle;rounded=0;orthogonalLoop=1;jettySize=auto;html=1;exitX=1;exitY=0;exitDx=0;exitDy=0;" edge="1" parent="1">
          <mxGeometry relative="1" as="geometry">
            <mxPoint x="446" y="721.0300000000001" as="sourcePoint" />
            <mxPoint x="485" y="721.0100000000001" as="targetPoint" />
            <Array as="points">
              <mxPoint x="469" y="721.0300000000001" />
            </Array>
          </mxGeometry>
        </mxCell>
        <mxCell id="XMS6jnG_ub9EiYpqz-PM-115" value="" style="group" vertex="1" connectable="0" parent="1">
          <mxGeometry x="493" y="678" width="60" height="75.5" as="geometry" />
        </mxCell>
        <mxCell id="XMS6jnG_ub9EiYpqz-PM-112" value="" style="sketch=0;points=[[0,0,0],[0.25,0,0],[0.5,0,0],[0.75,0,0],[1,0,0],[0,1,0],[0.25,1,0],[0.5,1,0],[0.75,1,0],[1,1,0],[0,0.25,0],[0,0.5,0],[0,0.75,0],[1,0.25,0],[1,0.5,0],[1,0.75,0]];points=[[0,0,0],[0.25,0,0],[0.5,0,0],[0.75,0,0],[1,0,0],[0,1,0],[0.25,1,0],[0.5,1,0],[0.75,1,0],[1,1,0],[0,0.25,0],[0,0.5,0],[0,0.75,0],[1,0.25,0],[1,0.5,0],[1,0.75,0]];outlineConnect=0;fontColor=#232F3E;fillColor=#E7157B;strokeColor=#ffffff;dashed=0;verticalLabelPosition=bottom;verticalAlign=top;align=center;html=1;fontSize=12;fontStyle=0;aspect=fixed;shape=mxgraph.aws4.resourceIcon;resIcon=mxgraph.aws4.well_architect_tool;" vertex="1" parent="XMS6jnG_ub9EiYpqz-PM-115">
          <mxGeometry x="10" width="37" height="37" as="geometry" />
        </mxCell>
        <mxCell id="XMS6jnG_ub9EiYpqz-PM-114" value="Insert CD tool here" style="text;html=1;align=center;verticalAlign=middle;whiteSpace=wrap;rounded=0;" vertex="1" parent="XMS6jnG_ub9EiYpqz-PM-115">
          <mxGeometry y="45.5" width="60" height="30" as="geometry" />
        </mxCell>
        <mxCell id="XMS6jnG_ub9EiYpqz-PM-116" style="edgeStyle=orthogonalEdgeStyle;rounded=0;orthogonalLoop=1;jettySize=auto;html=1;entryX=0;entryY=0.5;entryDx=0;entryDy=0;entryPerimeter=0;" edge="1" parent="1" source="XMS6jnG_ub9EiYpqz-PM-114" target="XMS6jnG_ub9EiYpqz-PM-102">
          <mxGeometry relative="1" as="geometry">
            <Array as="points">
              <mxPoint x="600" y="739" />
              <mxPoint x="600" y="606" />
            </Array>
          </mxGeometry>
        </mxCell>
        <mxCell id="XMS6jnG_ub9EiYpqz-PM-117" style="edgeStyle=orthogonalEdgeStyle;rounded=0;orthogonalLoop=1;jettySize=auto;html=1;entryX=-0.013;entryY=0.688;entryDx=0;entryDy=0;entryPerimeter=0;" edge="1" parent="1" source="XMS6jnG_ub9EiYpqz-PM-114" target="XMS6jnG_ub9EiYpqz-PM-104">
          <mxGeometry relative="1" as="geometry">
            <Array as="points">
              <mxPoint x="600" y="739" />
              <mxPoint x="600" y="680" />
            </Array>
          </mxGeometry>
        </mxCell>
        <mxCell id="XMS6jnG_ub9EiYpqz-PM-118" style="edgeStyle=orthogonalEdgeStyle;rounded=0;orthogonalLoop=1;jettySize=auto;html=1;entryX=0;entryY=0.75;entryDx=0;entryDy=0;" edge="1" parent="1" source="XMS6jnG_ub9EiYpqz-PM-114" target="XMS6jnG_ub9EiYpqz-PM-110">
          <mxGeometry relative="1" as="geometry">
            <Array as="points">
              <mxPoint x="600" y="739" />
              <mxPoint x="600" y="761" />
            </Array>
          </mxGeometry>
        </mxCell>
      </root>
    </mxGraphModel>
  </diagram>
</mxfile>
